HIERARCHY
ROOT Hips
{
    OFFSET 0.000000 0.000000 0.000000
    CHANNELS 6 Xposition Yposition Zposition Zrotation Xrotation Yrotation
    JOINT Spine
    {
        OFFSET -0.000000 14.517291 0.000000
        CHANNELS 3 Zrotation Xrotation Yrotation
        JOINT Spine1
        {
            OFFSET -0.000000 37.558300 0.000000
            CHANNELS 3 Zrotation Xrotation Yrotation
            JOINT Neck
            {
                OFFSET -0.000000 37.404057 3.400369
                CHANNELS 3 Zrotation Xrotation Yrotation
                JOINT Head
                {
                    OFFSET -0.000000 24.785618 -3.540803
                    CHANNELS 3 Zrotation Xrotation Yrotation
                    End Site
                    {
                        OFFSET -0.000000 35.408028 0.000000
                    }
                }
            }
            JOINT LeftShoulder
            {
                OFFSET 6.992933 33.973492 -0.192664
                CHANNELS 3 Zrotation Xrotation Yrotation
                JOINT LeftArm
                {
                    OFFSET 21.527611 0.000000 0.000000
                    CHANNELS 3 Zrotation Xrotation Yrotation
                    JOINT LeftForeArm
                    {
                        OFFSET 56.353916 0.000000 0.000000
                        CHANNELS 3 Zrotation Xrotation Yrotation
                        JOINT LeftHand
                        {
                            OFFSET 47.774071 0.000000 0.000000
                            CHANNELS 3 Zrotation Xrotation Yrotation
                            End Site
                            {
                                OFFSET 26.556021 0.000000 0.000000
                            }
                        }
                    }
                }
            }
            JOINT RightShoulder
            {
                OFFSET -7.065357 33.973492 -0.192664
                CHANNELS 3 Zrotation Xrotation Yrotation
                JOINT RightArm
                {
                    OFFSET -21.527611 0.000000 0.000000
                    CHANNELS 3 Zrotation Xrotation Yrotation
                    JOINT RightForeArm
                    {
                        OFFSET -56.353916 0.000000 0.000000
                        CHANNELS 3 Zrotation Xrotation Yrotation
                        JOINT RightHand
                        {
                            OFFSET -47.774071 0.000000 0.000000
                            CHANNELS 3 Zrotation Xrotation Yrotation
                            End Site
                            {
                                OFFSET -26.556021 0.000000 0.000000
                            }
                        }
                    }
                }
            }
        }
    }
    JOINT LeftUpLeg
    {
        OFFSET 17.704014 0.000000 0.000000
        CHANNELS 3 Zrotation Xrotation Yrotation
        JOINT LeftLeg
        {
            OFFSET -0.000000 -81.181816 0.000000
            CHANNELS 3 Zrotation Xrotation Yrotation
            JOINT LeftFoot
            {
                OFFSET -0.000000 -62.821102 0.000000
                CHANNELS 3 Zrotation Xrotation Yrotation
                JOINT LeftToeBase
                {
                    OFFSET -0.000000 -11.507608 26.556021
                    CHANNELS 3 Zrotation Xrotation Yrotation
                    End Site
                    {
                        OFFSET -0.000000 0.000000 7.081605
                    }
                }
            }
        }
    }
    JOINT RightUpLeg
    {
        OFFSET -17.704014 0.000000 0.000000
        CHANNELS 3 Zrotation Xrotation Yrotation
        JOINT RightLeg
        {
            OFFSET -0.000000 -81.181816 0.000000
            CHANNELS 3 Zrotation Xrotation Yrotation
            JOINT RightFoot
            {
                OFFSET -0.000000 -62.821102 0.000000
                CHANNELS 3 Zrotation Xrotation Yrotation
                JOINT RightToeBase
                {
                    OFFSET -0.000000 -11.507608 26.556021
                    CHANNELS 3 Zrotation Xrotation Yrotation
                    End Site
                    {
                        OFFSET -0.000000 0.000000 7.081605
                    }
                }
            }
        }
    }
}
MOTION
Frames:    11
Frame Time:    0.008333
0.481671    148.109573    -27.062565    -21.073040    -0.403912    -67.441422    -0.416200    -5.941864    6.723382    -0.507587    1.702388    2.253017    11.418335    -7.396364    11.011076    1.242853    19.305098    8.979785    7.677317    -0.411205    -13.790743    -14.799604    -12.408444    -46.708675    4.231528    -44.799664    -33.807701    -27.732510    -34.833641    -44.895832    -10.796705    5.009995    1.990406    35.660679    10.656051    79.864914    9.276087    -5.064391    104.602837    3.561750    -16.300623    19.701225    36.532200    4.600400    -4.118399    -17.680487    40.667271    -10.900296    -4.261312    -25.179747    39.785538    0.000000    0.000000    0.000000    -12.776972    19.804436    -0.844285    4.063578    28.025627    3.668942    10.171984    -27.095778    1.553611    0.000000    0.000000    0.000000    
0.770238    148.318588    -27.156242    -20.786200    -0.316804    -67.351990    -0.382146    -5.874549    6.694922    -0.519155    1.711879    2.243099    11.433543    -7.439781    11.001932    1.243725    19.280352    8.962852    7.698278    -0.400975    -13.806746    -14.753294    -12.427629    -46.681770    4.254928    -44.817024    -33.725151    -27.746479    -34.841328    -44.913410    -10.777856    4.981613    2.014817    35.535671    10.663232    79.825356    9.153868    -5.310452    104.535660    3.623153    -16.358973    19.706417    36.447510    4.308143    -4.014828    -17.594984    40.302132    -10.944817    -4.415712    -24.825960    39.800022    0.000000    0.000000    0.000000    -12.757352    19.553324    -0.573777    4.358612    27.688229    3.410949    9.975845    -26.762653    1.184945    0.000000    0.000000    0.000000    
1.083042    148.526596    -27.271444    -20.466732    -0.234323    -67.257645    -0.372691    -5.779177    6.671504    -0.555234    1.665025    2.235326    11.472869    -7.501789    11.009655    1.274527    19.272533    8.955321    7.783742    -0.406705    -13.817344    -14.756767    -12.425557    -46.685265    4.304340    -44.820148    -33.638126    -27.699444    -34.856640    -44.896770    -10.740598    4.917147    2.008973    35.565304    10.630926    79.736099    9.156916    -5.318491    104.445190    3.641917    -16.347368    19.737190    36.337158    4.016387    -3.919281    -17.523836    39.907795    -10.925604    -4.522119    -24.509996    39.819275    0.000000    0.000000    0.000000    -12.680901    19.269064    -0.555775    4.379340    27.348957    3.275863    9.957127    -26.429224    1.030537    0.000000    0.000000    0.000000    
1.396542    148.729828    -27.382671    -20.139332    -0.151633    -67.167740    -0.348206    -5.705144    6.651434    -0.617365    1.652662    2.229007    11.550971    -7.553735    11.014113    1.272432    19.274900    8.937763    7.868253    -0.419477    -13.830144    -14.706548    -12.349847    -46.674244    4.431113    -44.881363    -33.543850    -27.702652    -34.911247    -44.841911    -10.674253    4.912954    1.990233    35.524307    10.551739    79.705025    9.168262    -5.371186    104.375137    3.613572    -16.402651    19.737434    36.223076    3.729638    -3.793325    -17.436390    39.510651    -10.910586    -4.653549    -24.220762    39.828438    0.000000    0.000000    0.000000    -12.620473    18.976391    -0.533501    4.413908    27.011347    3.171079    9.932000    -26.105661    0.839340    0.000000    0.000000    0.000000    
1.722350    148.935104    -27.487951    -19.804211    -0.078476    -67.063911    -0.348074    -5.620435    6.620261    -0.628256    1.621406    2.218500    11.533516    -7.605343    10.990121    1.356124    19.286715    8.908739    7.896226    -0.411620    -13.860395    -14.634143    -12.291130    -46.574970    4.383473    -44.908287    -33.655663    -27.684446    -34.949501    -44.873062    -10.662782    4.844393    2.006099    35.499374    10.519645    79.619812    9.141821    -5.478703    104.275475    3.644569    -16.447136    19.742180    36.088272    3.423946    -3.690049    -17.353964    39.118370    -10.898653    -4.752543    -23.901642    39.851192    0.000000    0.000000    0.000000    -12.568151    18.688908    -0.564485    4.413719    26.658878    3.078622    9.909577    -25.767422    0.689025    0.000000    0.000000    0.000000    
2.047709    149.143539    -27.601545    -19.462954    0.006985    -66.963272    -0.358871    -5.549329    6.593634    -0.601445    1.601117    2.209264    11.513280    -7.622356    10.982241    1.402844    19.248213    8.902342    7.917717    -0.438042    -13.886977    -14.680990    -12.383463    -46.574650    4.267720    -44.805103    -33.650723    -27.587486    -34.902630    -44.837929    -10.662248    4.817478    1.981165    35.539566    10.439672    79.586334    9.151381    -5.471740    104.158470    3.664472    -16.424423    19.761736    35.972771    3.117852    -3.532970    -17.225712    38.715496    -10.904522    -4.889091    -23.551069    39.634380    0.000000    0.000000    0.000000    -12.495855    18.390488    -0.591702    4.399422    26.304226    2.961476    9.919999    -25.416971    0.552826    0.000000    0.000000    0.000000    
2.378557    149.354538    -27.714092    -19.139261    0.086367    -66.858780    -0.347538    -5.434377    6.568715    -0.617239    1.549230    2.200576    11.554779    -7.684164    10.966076    1.426130    19.316635    8.868645    7.954917    -0.416780    -13.927024    -14.635324    -12.380625    -46.555267    4.336354    -44.806221    -33.587685    -27.628824    -34.888844    -44.775650    -10.621476    4.771811    1.964386    35.480503    10.398524    79.536392    9.137836    -5.576396    104.059761    3.642804    -16.490114    19.809866    35.855560    2.829623    -3.392731    -17.109968    38.299049    -10.929710    -5.014663    -23.220490    39.599239    0.000000    0.000000    0.000000    -12.424833    18.095018    -0.631359    4.372530    25.982347    2.869236    9.932511    -25.066292    0.417352    0.000000    0.000000    0.000000    
2.710250    149.570557    -27.831316    -18.807718    0.176479    -66.739853    -0.336403    -5.337901    6.539522    -0.639829    1.517146    2.190712    11.613250    -7.672838    10.963613    1.428633    19.275434    8.854907    8.030763    -0.448816    -13.979836    -14.612689    -12.305081    -46.539394    4.413662    -44.858627    -33.523178    -27.685738    -34.896358    -44.840969    -10.588349    4.726521    1.943603    35.481087    10.336986    79.463394    9.133264    -5.642755    103.996696    3.705015    -16.525181    19.797266    35.749016    2.524561    -3.255918    -16.950806    37.786373    -10.983567    -5.195120    -22.787798    39.543980    0.000000    0.000000    0.000000    -12.350789    17.813791    -0.612594    4.397615    25.598381    2.682442    9.939297    -24.678936    0.288187    0.000000    0.000000    0.000000    
3.044949    149.771439    -27.945286    -18.457073    0.252704    -66.627357    -0.347876    -5.239546    6.520175    -0.639903    1.462995    2.184014    11.688810    -7.740364    10.961131    1.395908    19.377636    8.828557    8.058093    -0.425282    -14.028145    -14.290503    -11.889844    -46.471706    4.959462    -44.978817    -33.267200    -27.476141    -35.013279    -44.726921    -10.555452    4.690249    1.902536    35.423965    10.292951    79.432976    9.096184    -5.763759    103.905373    3.669815    -16.582230    19.811279    35.618507    2.201110    -3.141563    -16.860792    37.377789    -10.999744    -5.314513    -22.457678    39.542183    0.000000    0.000000    0.000000    -12.302526    17.507227    -0.696356    4.371589    25.260155    2.607663    9.945034    -24.339684    0.179406    0.000000    0.000000    0.000000    
3.385798    149.977127    -28.060064    -18.106916    0.337824    -66.525398    -0.346844    -5.159089    6.499956    -0.627990    1.441980    2.176908    11.724261    -7.723025    10.977604    1.389109    19.337669    8.840420    8.080962    -0.421867    -14.052675    -14.271187    -11.915507    -46.495872    4.979511    -44.935162    -33.190239    -27.480967    -34.957317    -44.734406    -10.554634    4.641713    1.888306    35.409492    10.218390    79.397133    9.119806    -5.847689    103.840477    3.670307    -16.680305    19.774118    35.484264    1.881810    -2.988390    -16.727757    36.972885    -11.010287    -5.459014    -22.108992    39.492214    0.000000    0.000000    0.000000    -12.243134    17.187586    -0.716482    4.347618    24.922709    2.502999    9.944546    -23.984337    0.044988    0.000000    0.000000    0.000000    
3.742385    150.177963    -28.174412    -17.761316    0.406776    -66.405548    -0.345251    -5.037061    6.468044    -0.653493    1.389001    2.166172    11.793345    -7.722604    10.992742    1.384676    19.338232    8.841219    8.145021    -0.396237    -14.078488    -14.255260    -11.909002    -46.552402    5.088517    -44.972004    -33.069145    -27.654514    -34.882454    -44.872440    -10.501557    4.621665    1.850103    35.348980    10.135010    79.383934    9.067167    -5.963391    103.751167    3.677587    -16.706024    19.808315    35.341286    1.561449    -2.856219    -16.605114    36.549858    -11.025057    -5.587356    -21.765928    39.455658    0.000000    0.000000    0.000000    -12.201486    16.879976    -0.758886    4.331944    24.587088    2.348114    9.952283    -23.629038    -0.035845    0.000000    0.000000    0.000000    
